<svg xmlns="http://www.w3.org/2000/svg"
     width="512"
     height="512"
     viewBox="0 0 564 564"
     preserveAspectRatio="xMidYMid meet">
  <g fill="#2758C8">
    <path d="M 328 144 L 327 145 L 326 145 L 325 145 L 324 145 L 323 145 L 322 145 L 321 145 L 320 145 L 319 145 L 318 145 L 317 145 L 316 145 L 315 145 L 314 145 L 313 145 L 312 145 L 311 145 L 310 145 L 309 145 L 308 145 L 307 145 L 306 145 L 305 145 L 304 145 L 303 145 L 302 145 L 301 145 L 300 145 L 299 145 L 298 145 L 297 145 L 296 145 L 295 145 L 294 145 L 293 145 L 292 145 L 291 145 L 290 145 L 289 145 L 288 145 L 287 145 L 286 146 L 285 147 L 284 148 L 283 149 L 282 150 L 281 151 L 280 152 L 279 153 L 278 153 L 277 154 L 276 155 L 275 156 L 274 157 L 273 158 L 272 159 L 271 160 L 270 161 L 269 161 L 268 162 L 267 163 L 266 164 L 265 165 L 264 166 L 263 167 L 262 168 L 261 169 L 260 170 L 259 170 L 258 171 L 257 172 L 256 173 L 255 174 L 254 175 L 253 176 L 252 177 L 251 178 L 250 178 L 249 179 L 248 180 L 247 181 L 246 182 L 245 183 L 244 184 L 243 185 L 242 186 L 241 187 L 240 187 L 239 188 L 238 189 L 237 190 L 236 191 L 235 192 L 234 193 L 233 194 L 232 195 L 231 195 L 230 196 L 229 197 L 228 198 L 227 199 L 226 200 L 225 201 L 224 202 L 223 203 L 222 204 L 221 204 L 220 205 L 219 206 L 218 207 L 217 208 L 216 209 L 215 210 L 214 211 L 213 212 L 212 212 L 211 213 L 210 214 L 209 215 L 208 216 L 207 217 L 206 218 L 205 219 L 204 220 L 203 221 L 202 221 L 201 222 L 200 223 L 199 224 L 198 225 L 197 226 L 197 227 L 198 228 L 198 229 L 199 230 L 200 231 L 201 232 L 202 233 L 203 234 L 204 235 L 205 236 L 206 237 L 207 238 L 207 239 L 208 240 L 209 241 L 210 242 L 211 243 L 212 244 L 213 245 L 214 246 L 215 247 L 215 248 L 216 249 L 217 250 L 218 251 L 219 252 L 220 253 L 221 254 L 222 255 L 223 256 L 224 257 L 224 258 L 225 259 L 226 260 L 227 261 L 228 262 L 229 263 L 230 264 L 231 265 L 232 266 L 233 267 L 233 268 L 234 269 L 235 270 L 236 271 L 237 272 L 238 273 L 239 274 L 240 275 L 241 276 L 242 276 L 243 275 L 244 274 L 245 273 L 246 272 L 247 272 L 248 271 L 249 270 L 250 269 L 251 268 L 252 267 L 253 266 L 254 265 L 255 264 L 256 264 L 257 263 L 258 262 L 259 261 L 260 260 L 261 259 L 262 258 L 263 257 L 264 256 L 265 256 L 266 255 L 267 254 L 268 253 L 269 252 L 270 251 L 271 250 L 272 249 L 273 248 L 274 248 L 275 247 L 276 246 L 277 245 L 278 244 L 279 243 L 280 242 L 281 241 L 282 240 L 283 240 L 284 239 L 285 238 L 286 237 L 287 236 L 288 235 L 289 234 L 290 233 L 291 232 L 292 232 L 293 231 L 294 230 L 295 229 L 296 228 L 297 227 L 298 226 L 299 225 L 300 224 L 301 224 L 302 223 L 303 222 L 304 221 L 305 220 L 306 219 L 307 218 L 308 217 L 309 216 L 310 215 L 311 215 L 312 214 L 313 213 L 314 212 L 315 212 L 316 212 L 317 212 L 318 212 L 319 212 L 320 212 L 321 212 L 322 212 L 323 212 L 324 212 L 325 212 L 326 212 L 327 212 L 328 212 L 329 212 L 330 212 L 331 212 L 332 212 L 333 212 L 334 212 L 335 212 L 336 212 L 337 212 L 338 212 L 339 212 L 340 212 L 341 212 L 342 212 L 343 212 L 344 212 L 345 212 L 346 213 L 347 214 L 348 215 L 348 216 L 349 217 L 350 218 L 351 219 L 352 220 L 352 221 L 353 222 L 354 223 L 355 224 L 355 225 L 356 226 L 357 227 L 358 228 L 359 229 L 359 230 L 360 231 L 361 232 L 362 233 L 362 234 L 363 235 L 364 236 L 365 237 L 366 238 L 366 239 L 367 240 L 368 241 L 369 242 L 369 243 L 370 244 L 371 245 L 372 246 L 373 247 L 373 248 L 374 249 L 375 250 L 376 251 L 377 252 L 377 253 L 378 254 L 379 255 L 380 256 L 380 257 L 381 258 L 382 259 L 383 260 L 384 261 L 384 262 L 385 263 L 386 264 L 387 265 L 387 266 L 388 267 L 389 268 L 390 269 L 391 270 L 391 271 L 392 272 L 393 273 L 394 274 L 394 275 L 395 276 L 396 277 L 397 278 L 398 279 L 398 280 L 399 281 L 400 282 L 401 283 L 401 284 L 402 285 L 403 286 L 404 287 L 405 288 L 405 289 L 406 290 L 407 291 L 408 292 L 408 293 L 409 294 L 410 295 L 411 296 L 412 297 L 412 298 L 413 299 L 414 300 L 415 301 L 415 302 L 416 303 L 417 304 L 418 305 L 419 306 L 419 307 L 420 308 L 421 309 L 422 310 L 421 311 L 420 312 L 419 313 L 418 314 L 417 315 L 416 316 L 415 317 L 414 318 L 413 319 L 412 320 L 411 321 L 410 322 L 409 323 L 408 324 L 407 325 L 406 326 L 405 327 L 404 328 L 403 328 L 402 329 L 401 330 L 400 331 L 399 332 L 398 333 L 397 334 L 396 335 L 395 336 L 394 337 L 393 338 L 392 339 L 391 340 L 390 341 L 389 342 L 388 343 L 387 344 L 386 345 L 385 346 L 384 347 L 383 348 L 382 349 L 381 350 L 380 351 L 379 352 L 378 353 L 377 354 L 376 355 L 375 356 L 374 357 L 373 358 L 372 359 L 371 360 L 370 361 L 369 362 L 368 363 L 367 364 L 366 365 L 365 366 L 364 366 L 363 367 L 362 368 L 361 369 L 360 370 L 359 371 L 358 372 L 357 373 L 356 374 L 355 375 L 354 376 L 353 377 L 352 378 L 351 379 L 350 380 L 349 381 L 348 382 L 347 383 L 346 384 L 345 385 L 344 386 L 343 387 L 342 388 L 341 389 L 340 390 L 339 391 L 338 392 L 337 393 L 336 394 L 335 395 L 334 396 L 333 397 L 332 398 L 331 399 L 330 400 L 329 401 L 328 402 L 327 403 L 326 404 L 325 404 L 324 405 L 323 406 L 322 407 L 321 408 L 320 409 L 319 410 L 318 411 L 317 412 L 316 413 L 315 414 L 314 415 L 313 416 L 312 417 L 311 418 L 310 419 L 309 420 L 308 421 L 307 422 L 306 423 L 305 424 L 304 425 L 303 426 L 302 426 L 301 426 L 300 426 L 299 426 L 298 426 L 297 426 L 296 426 L 295 426 L 294 426 L 293 426 L 292 426 L 291 426 L 290 426 L 289 426 L 288 426 L 287 426 L 286 426 L 285 426 L 284 426 L 283 426 L 282 426 L 281 426 L 280 426 L 279 426 L 278 426 L 277 426 L 276 426 L 275 426 L 274 426 L 273 426 L 272 426 L 271 426 L 270 426 L 269 426 L 268 426 L 267 426 L 266 426 L 265 426 L 264 426 L 263 426 L 262 426 L 261 426 L 260 426 L 259 426 L 258 426 L 257 426 L 256 426 L 255 426 L 254 426 L 253 426 L 252 426 L 251 426 L 250 426 L 249 426 L 248 426 L 247 426 L 246 426 L 245 426 L 244 426 L 243 426 L 242 426 L 241 426 L 240 426 L 239 426 L 238 426 L 237 426 L 236 426 L 235 426 L 234 426 L 233 426 L 232 426 L 231 426 L 230 426 L 229 426 L 228 426 L 227 426 L 226 426 L 225 426 L 224 426 L 223 426 L 222 426 L 221 426 L 220 426 L 219 426 L 218 426 L 217 426 L 216 426 L 215 426 L 214 426 L 213 426 L 212 426 L 211 426 L 210 426 L 209 426 L 208 426 L 207 426 L 206 426 L 205 426 L 204 426 L 203 426 L 202 426 L 201 426 L 200 426 L 199 426 L 198 426 L 197 426 L 196 426 L 195 426 L 194 426 L 193 426 L 192 426 L 191 426 L 190 426 L 189 426 L 188 426 L 187 426 L 186 426 L 185 426 L 184 426 L 183 426 L 182 426 L 181 426 L 180 426 L 179 426 L 178 426 L 177 426 L 176 426 L 175 426 L 174 426 L 173 426 L 172 426 L 171 425 L 170 424 L 169 423 L 169 422 L 168 421 L 167 420 L 166 419 L 166 418 L 165 417 L 164 416 L 163 415 L 162 414 L 162 413 L 161 412 L 160 411 L 159 410 L 159 409 L 158 408 L 157 407 L 156 406 L 156 405 L 155 404 L 154 403 L 153 402 L 153 401 L 152 400 L 151 399 L 150 398 L 150 397 L 149 396 L 148 395 L 147 394 L 146 393 L 146 392 L 145 391 L 144 390 L 143 389 L 143 388 L 142 387 L 141 386 L 140 385 L 140 384 L 139 383 L 138 382 L 137 381 L 137 380 L 136 379 L 135 378 L 134 377 L 134 376 L 133 375 L 132 374 L 131 373 L 130 372 L 130 371 L 129 370 L 128 369 L 127 368 L 127 367 L 126 366 L 125 365 L 124 364 L 124 363 L 123 362 L 122 361 L 121 360 L 121 359 L 120 358 L 119 357 L 118 356 L 118 355 L 117 354 L 116 353 L 115 352 L 114 351 L 114 350 L 113 349 L 112 348 L 111 347 L 111 346 L 110 345 L 109 344 L 108 343 L 108 342 L 107 341 L 106 340 L 105 339 L 105 338 L 104 337 L 103 336 L 102 335 L 102 334 L 101 333 L 100 332 L 99 331 L 98 330 L 98 329 L 97 328 L 96 327 L 95 326 L 95 325 L 94 324 L 93 323 L 92 322 L 92 321 L 91 320 L 90 319 L 89 318 L 89 317 L 88 316 L 87 315 L 86 314 L 85 313 L 85 312 L 84 311 L 83 310 L 82 309 L 82 308 L 81 307 L 80 306 L 79 305 L 79 304 L 78 303 L 77 302 L 76 301 L 76 300 L 75 299 L 74 298 L 73 297 L 73 296 L 72 295 L 71 294 L 70 293 L 69 292 L 69 291 L 68 290 L 67 289 L 66 288 L 66 287 L 65 286 L 64 285 L 63 284 L 63 283 L 62 282 L 61 281 L 60 280 L 60 279 L 59 278 L 58 277 L 57 276 L 57 275 L 56 274 L 55 273 L 54 272 L 53 271 L 53 270 L 52 269 L 51 268 L 50 267 L 50 266 L 50 267 L 50 268 L 50 269 L 50 270 L 50 271 L 50 272 L 50 273 L 50 274 L 50 275 L 50 276 L 50 277 L 50 278 L 50 279 L 50 280 L 50 281 L 50 282 L 50 283 L 50 284 L 50 285 L 50 286 L 50 287 L 50 288 L 50 289 L 50 290 L 50 291 L 50 292 L 50 293 L 50 294 L 50 295 L 50 296 L 50 297 L 50 298 L 50 299 L 50 300 L 50 301 L 50 302 L 50 303 L 50 304 L 50 305 L 50 306 L 50 307 L 50 308 L 50 309 L 50 310 L 50 311 L 50 312 L 50 313 L 50 314 L 50 315 L 50 316 L 50 317 L 50 318 L 50 319 L 50 320 L 50 321 L 50 322 L 50 323 L 50 324 L 50 325 L 50 326 L 50 327 L 50 328 L 50 329 L 50 330 L 50 331 L 50 332 L 50 333 L 50 334 L 50 335 L 50 336 L 50 337 L 50 338 L 50 339 L 50 340 L 50 341 L 50 342 L 50 343 L 50 344 L 50 345 L 50 346 L 50 347 L 50 348 L 50 349 L 50 350 L 50 351 L 50 352 L 50 353 L 50 354 L 50 355 L 50 356 L 50 357 L 50 358 L 50 359 L 50 360 L 50 361 L 50 362 L 50 363 L 50 364 L 50 365 L 50 366 L 50 367 L 50 368 L 50 369 L 50 370 L 50 371 L 50 372 L 50 373 L 50 374 L 50 375 L 50 376 L 50 377 L 50 378 L 51 379 L 52 380 L 52 381 L 53 382 L 54 383 L 55 384 L 55 385 L 56 386 L 57 387 L 58 388 L 58 389 L 59 390 L 60 391 L 61 392 L 62 393 L 62 394 L 63 395 L 64 396 L 65 397 L 65 398 L 66 399 L 67 400 L 68 401 L 68 402 L 69 403 L 70 404 L 71 405 L 71 406 L 72 407 L 73 408 L 74 409 L 74 410 L 75 411 L 76 412 L 77 413 L 78 414 L 78 415 L 79 416 L 80 417 L 81 418 L 81 419 L 82 420 L 83 421 L 84 422 L 84 423 L 85 424 L 86 425 L 87 426 L 87 427 L 88 428 L 89 429 L 90 430 L 90 431 L 91 432 L 92 433 L 93 434 L 94 435 L 94 436 L 95 437 L 96 438 L 97 439 L 97 440 L 98 441 L 99 442 L 100 443 L 100 444 L 101 445 L 102 446 L 103 447 L 103 448 L 104 449 L 105 450 L 106 451 L 107 452 L 107 453 L 108 454 L 109 455 L 110 456 L 110 457 L 111 458 L 112 459 L 113 460 L 113 461 L 114 462 L 115 463 L 116 464 L 116 465 L 117 466 L 118 467 L 119 468 L 119 469 L 120 470 L 121 471 L 122 472 L 123 473 L 123 474 L 124 475 L 125 476 L 126 477 L 126 478 L 127 479 L 128 480 L 129 481 L 129 482 L 130 483 L 131 484 L 132 485 L 132 486 L 133 487 L 134 488 L 135 489 L 135 490 L 136 491 L 137 492 L 138 493 L 139 493 L 140 493 L 141 493 L 142 493 L 143 493 L 144 493 L 145 493 L 146 493 L 147 493 L 148 493 L 149 493 L 150 493 L 151 493 L 152 493 L 153 493 L 154 493 L 155 493 L 156 493 L 157 493 L 158 493 L 159 493 L 160 493 L 161 493 L 162 493 L 163 493 L 164 493 L 165 493 L 166 493 L 167 493 L 168 493 L 169 493 L 170 493 L 171 493 L 172 493 L 173 493 L 174 493 L 175 493 L 176 493 L 177 493 L 178 493 L 179 493 L 180 493 L 181 493 L 182 493 L 183 493 L 184 493 L 185 493 L 186 493 L 187 493 L 188 493 L 189 493 L 190 493 L 191 493 L 192 493 L 193 493 L 194 493 L 195 493 L 196 493 L 197 493 L 198 493 L 199 493 L 200 493 L 201 493 L 202 493 L 203 493 L 204 493 L 205 493 L 206 493 L 207 493 L 208 493 L 209 493 L 210 493 L 211 493 L 212 493 L 213 493 L 214 493 L 215 493 L 216 493 L 217 493 L 218 493 L 219 493 L 220 493 L 221 493 L 222 493 L 223 493 L 224 493 L 225 493 L 226 493 L 227 493 L 228 493 L 229 493 L 230 493 L 231 493 L 232 493 L 233 493 L 234 493 L 235 493 L 236 493 L 237 493 L 238 493 L 239 493 L 240 493 L 241 493 L 242 493 L 243 493 L 244 493 L 245 493 L 246 493 L 247 493 L 248 493 L 249 493 L 250 493 L 251 493 L 252 493 L 253 493 L 254 493 L 255 493 L 256 493 L 257 493 L 258 493 L 259 493 L 260 493 L 261 493 L 262 493 L 263 493 L 264 493 L 265 493 L 266 493 L 267 493 L 268 493 L 269 493 L 270 493 L 271 493 L 272 493 L 273 493 L 274 493 L 275 493 L 276 493 L 277 493 L 278 493 L 279 493 L 280 493 L 281 493 L 282 493 L 283 493 L 284 493 L 285 493 L 286 493 L 287 493 L 288 493 L 289 493 L 290 493 L 291 493 L 292 493 L 293 493 L 294 493 L 295 493 L 296 493 L 297 493 L 298 493 L 299 493 L 300 493 L 301 493 L 302 493 L 303 493 L 304 493 L 305 493 L 306 493 L 307 493 L 308 493 L 309 493 L 310 493 L 311 493 L 312 493 L 313 493 L 314 493 L 315 493 L 316 493 L 317 493 L 318 493 L 319 493 L 320 493 L 321 493 L 322 493 L 323 493 L 324 493 L 325 493 L 326 493 L 327 493 L 328 493 L 329 493 L 330 493 L 331 493 L 332 492 L 333 491 L 334 490 L 335 489 L 336 488 L 337 487 L 338 486 L 339 485 L 340 484 L 341 483 L 342 482 L 343 482 L 344 481 L 345 480 L 346 479 L 347 478 L 348 477 L 349 476 L 350 475 L 351 474 L 352 473 L 353 472 L 354 471 L 355 470 L 356 469 L 357 468 L 358 467 L 359 466 L 360 465 L 361 464 L 362 463 L 363 462 L 364 461 L 365 460 L 366 459 L 367 458 L 368 457 L 369 456 L 370 455 L 371 454 L 372 453 L 373 452 L 374 451 L 375 450 L 376 449 L 377 448 L 378 447 L 379 446 L 380 445 L 381 444 L 382 443 L 383 442 L 384 441 L 385 440 L 386 439 L 387 438 L 388 437 L 389 437 L 390 436 L 391 435 L 392 434 L 393 433 L 394 432 L 395 431 L 396 430 L 397 429 L 398 428 L 399 427 L 400 426 L 401 425 L 402 424 L 403 423 L 404 422 L 405 421 L 406 420 L 407 419 L 408 418 L 409 417 L 410 416 L 411 415 L 412 414 L 413 413 L 414 412 L 415 411 L 416 410 L 417 409 L 418 408 L 419 407 L 420 406 L 421 405 L 422 404 L 423 403 L 424 402 L 425 401 L 426 400 L 427 399 L 428 398 L 429 397 L 430 396 L 431 395 L 432 394 L 433 393 L 434 393 L 435 392 L 436 391 L 437 390 L 438 389 L 439 388 L 440 387 L 441 386 L 442 385 L 443 384 L 444 383 L 445 382 L 446 381 L 447 380 L 448 379 L 449 378 L 450 377 L 451 376 L 452 375 L 453 374 L 454 373 L 455 372 L 456 371 L 457 370 L 458 369 L 459 368 L 460 367 L 461 366 L 462 365 L 463 364 L 464 363 L 465 362 L 466 361 L 467 360 L 468 359 L 469 358 L 470 357 L 471 356 L 472 355 L 473 354 L 474 353 L 475 352 L 476 351 L 477 350 L 478 349 L 479 348 L 480 348 L 481 347 L 482 346 L 483 345 L 484 344 L 485 343 L 486 342 L 487 341 L 488 340 L 489 339 L 490 338 L 491 337 L 492 336 L 493 335 L 494 334 L 495 333 L 496 332 L 497 331 L 498 330 L 499 329 L 500 328 L 501 327 L 502 326 L 503 325 L 504 324 L 505 323 L 506 322 L 507 321 L 508 320 L 509 319 L 510 318 L 511 317 L 511 316 L 511 315 L 510 314 L 510 313 L 509 312 L 508 311 L 507 310 L 507 309 L 506 308 L 505 307 L 504 306 L 503 305 L 503 304 L 502 303 L 501 302 L 500 301 L 500 300 L 499 299 L 498 298 L 497 297 L 496 296 L 496 295 L 495 294 L 494 293 L 493 292 L 493 291 L 492 290 L 491 289 L 490 288 L 489 287 L 489 286 L 488 285 L 487 284 L 486 283 L 486 282 L 485 281 L 484 280 L 483 279 L 482 278 L 482 277 L 481 276 L 480 275 L 479 274 L 479 273 L 478 272 L 477 271 L 476 270 L 475 269 L 475 268 L 474 267 L 473 266 L 472 265 L 472 264 L 471 263 L 470 262 L 469 261 L 468 260 L 468 259 L 467 258 L 466 257 L 465 256 L 465 255 L 464 254 L 463 253 L 462 252 L 461 251 L 461 250 L 460 249 L 459 248 L 458 247 L 458 246 L 457 245 L 456 244 L 455 243 L 454 242 L 454 241 L 453 240 L 452 239 L 451 238 L 451 237 L 450 236 L 449 235 L 448 234 L 447 233 L 447 232 L 446 231 L 445 230 L 444 229 L 444 228 L 443 227 L 442 226 L 441 225 L 440 224 L 440 223 L 439 222 L 438 221 L 437 220 L 437 219 L 436 218 L 435 217 L 434 216 L 433 215 L 433 214 L 432 213 L 431 212 L 430 211 L 430 210 L 429 209 L 428 208 L 427 207 L 426 206 L 426 205 L 425 204 L 424 203 L 423 202 L 423 201 L 422 200 L 421 199 L 420 198 L 419 197 L 419 196 L 418 195 L 417 194 L 416 193 L 416 192 L 415 191 L 414 190 L 413 189 L 412 188 L 412 187 L 411 186 L 410 185 L 409 184 L 408 183 L 408 182 L 407 181 L 406 180 L 405 179 L 405 178 L 404 177 L 403 176 L 402 175 L 401 174 L 401 173 L 400 172 L 399 171 L 398 170 L 398 169 L 397 168 L 396 167 L 395 166 L 394 165 L 394 164 L 393 163 L 392 162 L 391 161 L 391 160 L 390 159 L 389 158 L 388 157 L 387 156 L 387 155 L 386 154 L 385 153 L 384 152 L 384 151 L 383 150 L 382 149 L 381 148 L 380 147 L 380 146 L 379 145 L 378 144 L 377 144 L 376 144 L 375 144 L 374 144 L 373 144 L 372 144 L 371 144 L 370 144 L 369 144 L 368 144 L 367 144 L 366 144 L 365 144 L 364 144 L 363 144 L 362 144 L 361 144 L 360 144 L 359 144 L 358 144 L 357 144 L 356 144 L 355 144 L 354 144 L 353 144 L 352 144 L 351 144 L 350 144 L 349 144 L 348 144 L 347 144 L 346 144 L 345 144 L 344 144 L 343 144 L 342 144 L 341 144 L 340 144 L 339 144 L 338 144 L 337 144 L 336 144 L 335 144 L 334 144 L 333 144 L 332 144 L 331 144 L 330 144 L 329 144 Z"/>
    <path d="M 231 39 L 230 40 L 229 41 L 228 42 L 227 43 L 226 44 L 225 45 L 224 46 L 223 47 L 222 48 L 221 49 L 220 50 L 219 51 L 218 52 L 217 53 L 216 54 L 215 55 L 214 56 L 213 57 L 212 58 L 211 59 L 210 60 L 209 61 L 208 62 L 207 63 L 206 64 L 205 64 L 204 65 L 203 66 L 202 67 L 201 68 L 200 69 L 199 70 L 198 71 L 197 72 L 196 73 L 195 74 L 194 75 L 193 76 L 192 77 L 191 78 L 190 79 L 189 80 L 188 81 L 187 82 L 186 83 L 185 84 L 184 85 L 183 86 L 182 87 L 181 88 L 180 89 L 179 90 L 178 91 L 177 92 L 176 93 L 175 94 L 174 95 L 173 96 L 172 97 L 171 98 L 170 99 L 169 100 L 168 101 L 167 102 L 166 103 L 165 104 L 164 105 L 163 106 L 162 106 L 161 107 L 160 108 L 159 109 L 158 110 L 157 111 L 156 112 L 155 113 L 154 114 L 153 115 L 152 116 L 151 117 L 150 118 L 149 119 L 148 120 L 147 121 L 146 122 L 145 123 L 144 124 L 143 125 L 142 126 L 141 127 L 140 128 L 139 129 L 138 130 L 137 131 L 136 132 L 135 133 L 134 134 L 133 135 L 132 136 L 131 137 L 130 138 L 129 139 L 128 140 L 127 141 L 126 142 L 125 143 L 124 144 L 123 145 L 122 146 L 121 147 L 120 147 L 119 148 L 118 149 L 117 150 L 116 151 L 115 152 L 114 153 L 113 154 L 112 155 L 111 156 L 110 157 L 109 158 L 108 159 L 107 160 L 106 161 L 105 162 L 104 163 L 103 164 L 102 165 L 101 166 L 100 167 L 99 168 L 98 169 L 97 170 L 96 171 L 95 172 L 94 173 L 93 174 L 92 175 L 91 176 L 90 177 L 89 178 L 88 179 L 87 180 L 86 181 L 85 182 L 84 183 L 83 184 L 82 185 L 81 186 L 80 187 L 79 188 L 78 189 L 77 189 L 76 190 L 75 191 L 74 192 L 73 193 L 72 194 L 71 195 L 70 196 L 69 197 L 68 198 L 67 199 L 66 200 L 65 201 L 64 202 L 63 203 L 62 204 L 61 205 L 60 206 L 59 207 L 58 208 L 57 209 L 56 210 L 55 211 L 54 212 L 53 213 L 52 214 L 51 215 L 50 216 L 51 217 L 52 218 L 53 219 L 53 220 L 54 221 L 55 222 L 56 223 L 57 224 L 57 225 L 58 226 L 59 227 L 60 228 L 61 229 L 61 230 L 62 231 L 63 232 L 64 233 L 64 234 L 65 235 L 66 236 L 67 237 L 68 238 L 68 239 L 69 240 L 70 241 L 71 242 L 71 243 L 72 244 L 73 245 L 74 246 L 75 247 L 75 248 L 76 249 L 77 250 L 78 251 L 78 252 L 79 253 L 80 254 L 81 255 L 82 256 L 82 257 L 83 258 L 84 259 L 85 260 L 85 261 L 86 262 L 87 263 L 88 264 L 89 265 L 89 266 L 90 267 L 91 268 L 92 269 L 93 270 L 93 271 L 94 272 L 95 273 L 96 274 L 96 275 L 97 276 L 98 277 L 99 278 L 100 279 L 100 280 L 101 281 L 102 282 L 103 283 L 103 284 L 104 285 L 105 286 L 106 287 L 107 288 L 107 289 L 108 290 L 109 291 L 110 292 L 110 293 L 111 294 L 112 295 L 113 296 L 114 297 L 114 298 L 115 299 L 116 300 L 117 301 L 117 302 L 118 303 L 119 304 L 120 305 L 121 306 L 121 307 L 122 308 L 123 309 L 124 310 L 125 311 L 125 312 L 126 313 L 127 314 L 128 315 L 128 316 L 129 317 L 130 318 L 131 319 L 132 320 L 132 321 L 133 322 L 134 323 L 135 324 L 135 325 L 136 326 L 137 327 L 138 328 L 139 329 L 139 330 L 140 331 L 141 332 L 142 333 L 142 334 L 143 335 L 144 336 L 145 337 L 146 338 L 146 339 L 147 340 L 148 341 L 149 342 L 150 343 L 150 344 L 151 345 L 152 346 L 153 347 L 153 348 L 154 349 L 155 350 L 156 351 L 157 352 L 157 353 L 158 354 L 159 355 L 160 356 L 160 357 L 161 358 L 162 359 L 163 360 L 164 361 L 164 362 L 165 363 L 166 364 L 167 365 L 167 366 L 168 367 L 169 368 L 170 369 L 171 370 L 171 371 L 172 372 L 173 373 L 174 374 L 174 375 L 175 376 L 176 377 L 177 378 L 178 379 L 178 380 L 179 381 L 180 382 L 181 383 L 182 384 L 182 385 L 183 386 L 184 387 L 185 388 L 186 388 L 187 388 L 188 388 L 189 388 L 190 388 L 191 388 L 192 388 L 193 388 L 194 388 L 195 388 L 196 388 L 197 388 L 198 388 L 199 388 L 200 388 L 201 388 L 202 388 L 203 388 L 204 388 L 205 388 L 206 388 L 207 388 L 208 388 L 209 388 L 210 388 L 211 388 L 212 388 L 213 388 L 214 388 L 215 388 L 216 388 L 217 388 L 218 388 L 219 388 L 220 388 L 221 388 L 222 387 L 223 387 L 224 387 L 225 387 L 226 387 L 227 387 L 228 387 L 229 387 L 230 387 L 231 387 L 232 387 L 233 387 L 234 387 L 235 387 L 236 387 L 237 387 L 238 387 L 239 387 L 240 387 L 241 387 L 242 387 L 243 387 L 244 387 L 245 387 L 246 387 L 247 387 L 248 387 L 249 387 L 250 387 L 251 387 L 252 387 L 253 387 L 254 387 L 255 387 L 256 387 L 257 387 L 258 387 L 259 387 L 260 387 L 261 387 L 262 387 L 263 387 L 264 387 L 265 387 L 266 387 L 267 387 L 268 387 L 269 387 L 270 387 L 271 387 L 272 387 L 273 387 L 274 387 L 275 387 L 276 386 L 277 385 L 278 384 L 279 383 L 280 382 L 281 382 L 282 381 L 283 380 L 284 379 L 285 378 L 286 377 L 287 376 L 288 375 L 289 374 L 290 374 L 291 373 L 292 372 L 293 371 L 294 370 L 295 369 L 296 368 L 297 367 L 298 366 L 299 365 L 300 365 L 301 364 L 302 363 L 303 362 L 304 361 L 305 360 L 306 359 L 307 358 L 308 357 L 309 357 L 310 356 L 311 355 L 312 354 L 313 353 L 314 352 L 315 351 L 316 350 L 317 349 L 318 349 L 319 348 L 320 347 L 321 346 L 322 345 L 323 344 L 324 343 L 325 342 L 326 341 L 327 340 L 328 340 L 329 339 L 330 338 L 331 337 L 332 336 L 333 335 L 334 334 L 335 333 L 336 332 L 337 332 L 338 331 L 339 330 L 340 329 L 341 328 L 342 327 L 343 326 L 344 325 L 345 324 L 346 324 L 347 323 L 348 322 L 349 321 L 350 320 L 351 319 L 352 318 L 353 317 L 354 316 L 355 315 L 356 315 L 357 314 L 358 313 L 359 312 L 360 311 L 361 310 L 362 309 L 363 308 L 364 307 L 365 307 L 366 306 L 366 305 L 365 304 L 364 303 L 363 302 L 362 301 L 361 300 L 361 299 L 360 298 L 359 297 L 358 296 L 357 295 L 356 294 L 355 293 L 354 292 L 353 291 L 353 290 L 352 289 L 351 288 L 350 287 L 349 286 L 348 285 L 347 284 L 346 283 L 345 282 L 345 281 L 344 280 L 343 279 L 342 278 L 341 277 L 340 276 L 339 275 L 338 274 L 337 273 L 337 272 L 336 271 L 335 270 L 334 269 L 333 268 L 332 267 L 331 266 L 330 265 L 329 264 L 328 263 L 328 262 L 327 261 L 326 260 L 325 259 L 324 258 L 323 257 L 322 256 L 321 255 L 320 256 L 319 257 L 318 258 L 317 259 L 316 260 L 315 261 L 314 261 L 313 262 L 312 263 L 311 264 L 310 265 L 309 266 L 308 267 L 307 268 L 306 269 L 305 270 L 304 270 L 303 271 L 302 272 L 301 273 L 300 274 L 299 275 L 298 276 L 297 277 L 296 278 L 295 278 L 294 279 L 293 280 L 292 281 L 291 282 L 290 283 L 289 284 L 288 285 L 287 286 L 286 286 L 285 287 L 284 288 L 283 289 L 282 290 L 281 291 L 280 292 L 279 293 L 278 294 L 277 294 L 276 295 L 275 296 L 274 297 L 273 298 L 272 299 L 271 300 L 270 301 L 269 302 L 268 303 L 267 303 L 266 304 L 265 305 L 264 306 L 263 307 L 262 308 L 261 309 L 260 310 L 259 311 L 258 311 L 257 312 L 256 313 L 255 314 L 254 315 L 253 316 L 252 317 L 251 318 L 250 319 L 249 319 L 248 320 L 247 320 L 246 320 L 245 320 L 244 320 L 243 320 L 242 320 L 241 320 L 240 320 L 239 320 L 238 320 L 237 320 L 236 320 L 235 320 L 234 320 L 233 320 L 232 320 L 231 320 L 230 320 L 229 320 L 228 320 L 227 320 L 226 320 L 225 320 L 224 320 L 223 320 L 222 320 L 221 320 L 220 320 L 219 320 L 218 320 L 217 320 L 216 319 L 216 318 L 215 317 L 214 316 L 213 315 L 212 314 L 212 313 L 211 312 L 210 311 L 209 310 L 209 309 L 208 308 L 207 307 L 206 306 L 205 305 L 205 304 L 204 303 L 203 302 L 202 301 L 202 300 L 201 299 L 200 298 L 199 297 L 198 296 L 198 295 L 197 294 L 196 293 L 195 292 L 195 291 L 194 290 L 193 289 L 192 288 L 191 287 L 191 286 L 190 285 L 189 284 L 188 283 L 188 282 L 187 281 L 186 280 L 185 279 L 184 278 L 184 277 L 183 276 L 182 275 L 181 274 L 181 273 L 180 272 L 179 271 L 178 270 L 177 269 L 177 268 L 176 267 L 175 266 L 174 265 L 174 264 L 173 263 L 172 262 L 171 261 L 170 260 L 170 259 L 169 258 L 168 257 L 167 256 L 167 255 L 166 254 L 165 253 L 164 252 L 163 251 L 163 250 L 162 249 L 161 248 L 160 247 L 159 246 L 159 245 L 158 244 L 157 243 L 156 242 L 156 241 L 155 240 L 154 239 L 153 238 L 152 237 L 152 236 L 151 235 L 150 234 L 149 233 L 149 232 L 148 231 L 147 230 L 146 229 L 145 228 L 145 227 L 144 226 L 143 225 L 142 224 L 142 223 L 141 222 L 142 221 L 143 220 L 144 219 L 145 218 L 146 217 L 147 216 L 148 215 L 149 214 L 150 213 L 151 212 L 152 211 L 153 210 L 154 209 L 155 208 L 156 207 L 157 206 L 158 205 L 159 204 L 160 203 L 161 202 L 162 201 L 163 200 L 164 199 L 165 198 L 166 197 L 167 196 L 168 195 L 169 194 L 170 193 L 171 192 L 172 191 L 173 190 L 174 189 L 175 188 L 176 187 L 177 186 L 178 185 L 179 184 L 180 183 L 181 182 L 182 181 L 183 180 L 184 179 L 185 179 L 186 178 L 187 177 L 188 176 L 189 175 L 190 174 L 191 173 L 192 172 L 193 171 L 194 170 L 195 169 L 196 168 L 197 167 L 198 166 L 199 165 L 200 164 L 201 163 L 202 162 L 203 161 L 204 160 L 205 159 L 206 158 L 207 157 L 208 156 L 209 155 L 210 154 L 211 153 L 212 152 L 213 151 L 214 150 L 215 149 L 216 148 L 217 147 L 218 146 L 219 145 L 220 144 L 221 143 L 222 142 L 223 141 L 224 140 L 225 139 L 226 138 L 227 137 L 228 136 L 229 135 L 230 135 L 231 134 L 232 133 L 233 132 L 234 131 L 235 130 L 236 129 L 237 128 L 238 127 L 239 126 L 240 125 L 241 124 L 242 123 L 243 122 L 244 121 L 245 120 L 246 119 L 247 118 L 248 117 L 249 116 L 250 115 L 251 114 L 252 113 L 253 112 L 254 111 L 255 110 L 256 109 L 257 108 L 258 107 L 259 106 L 260 106 L 261 106 L 262 106 L 263 106 L 264 106 L 265 106 L 266 106 L 267 106 L 268 106 L 269 106 L 270 106 L 271 106 L 272 106 L 273 106 L 274 106 L 275 106 L 276 106 L 277 106 L 278 106 L 279 106 L 280 106 L 281 106 L 282 106 L 283 106 L 284 106 L 285 106 L 286 106 L 287 106 L 288 106 L 289 106 L 290 106 L 291 106 L 292 106 L 293 106 L 294 106 L 295 106 L 296 106 L 297 106 L 298 106 L 299 106 L 300 106 L 301 106 L 302 106 L 303 106 L 304 106 L 305 106 L 306 106 L 307 106 L 308 106 L 309 106 L 310 106 L 311 106 L 312 106 L 313 106 L 314 106 L 315 106 L 316 106 L 317 106 L 318 106 L 319 106 L 320 106 L 321 106 L 322 106 L 323 106 L 324 106 L 325 106 L 326 106 L 327 106 L 328 106 L 329 106 L 330 106 L 331 106 L 332 106 L 333 106 L 334 106 L 335 106 L 336 106 L 337 106 L 338 106 L 339 106 L 340 106 L 341 106 L 342 106 L 343 106 L 344 106 L 345 106 L 346 106 L 347 106 L 348 106 L 349 106 L 350 106 L 351 106 L 352 106 L 353 106 L 354 106 L 355 106 L 356 106 L 357 106 L 358 106 L 359 106 L 360 106 L 361 106 L 362 106 L 363 106 L 364 106 L 365 106 L 366 106 L 367 106 L 368 106 L 369 106 L 370 106 L 371 106 L 372 106 L 373 106 L 374 106 L 375 106 L 376 106 L 377 106 L 378 106 L 379 106 L 380 106 L 381 106 L 382 106 L 383 106 L 384 106 L 385 106 L 386 106 L 387 106 L 388 106 L 389 106 L 390 106 L 391 106 L 392 107 L 393 108 L 393 109 L 394 110 L 395 111 L 396 112 L 396 113 L 397 114 L 398 115 L 399 116 L 399 117 L 400 118 L 401 119 L 402 120 L 402 121 L 403 122 L 404 123 L 405 124 L 405 125 L 406 126 L 407 127 L 408 128 L 409 129 L 409 130 L 410 131 L 411 132 L 412 133 L 412 134 L 413 135 L 414 136 L 415 137 L 415 138 L 416 139 L 417 140 L 418 141 L 418 142 L 419 143 L 420 144 L 421 145 L 421 146 L 422 147 L 423 148 L 424 149 L 425 150 L 425 151 L 426 152 L 427 153 L 428 154 L 428 155 L 429 156 L 430 157 L 431 158 L 431 159 L 432 160 L 433 161 L 434 162 L 434 163 L 435 164 L 436 165 L 437 166 L 437 167 L 438 168 L 439 169 L 440 170 L 440 171 L 441 172 L 442 173 L 443 174 L 444 175 L 444 176 L 445 177 L 446 178 L 447 179 L 447 180 L 448 181 L 449 182 L 450 183 L 450 184 L 451 185 L 452 186 L 453 187 L 453 188 L 454 189 L 455 190 L 456 191 L 456 192 L 457 193 L 458 194 L 459 195 L 460 196 L 460 197 L 461 198 L 462 199 L 463 200 L 463 201 L 464 202 L 465 203 L 466 204 L 466 205 L 467 206 L 468 207 L 469 208 L 469 209 L 470 210 L 471 211 L 472 212 L 472 213 L 473 214 L 474 215 L 475 216 L 475 217 L 476 218 L 477 219 L 478 220 L 479 221 L 479 222 L 480 223 L 481 224 L 482 225 L 482 226 L 483 227 L 484 228 L 485 229 L 485 230 L 486 231 L 487 232 L 488 233 L 488 234 L 489 235 L 490 236 L 491 237 L 491 238 L 492 239 L 493 240 L 494 241 L 495 242 L 495 243 L 496 244 L 497 245 L 498 246 L 498 247 L 499 248 L 500 249 L 501 250 L 501 251 L 502 252 L 503 253 L 504 254 L 504 255 L 505 256 L 506 257 L 507 258 L 507 259 L 508 260 L 509 261 L 510 262 L 510 263 L 511 264 L 511 263 L 511 262 L 511 261 L 511 260 L 511 259 L 511 258 L 511 257 L 511 256 L 511 255 L 511 254 L 511 253 L 511 252 L 511 251 L 511 250 L 511 249 L 511 248 L 511 247 L 511 246 L 511 245 L 511 244 L 511 243 L 511 242 L 511 241 L 511 240 L 511 239 L 511 238 L 511 237 L 511 236 L 511 235 L 511 234 L 511 233 L 511 232 L 511 231 L 511 230 L 511 229 L 511 228 L 511 227 L 511 226 L 511 225 L 511 224 L 511 223 L 511 222 L 511 221 L 511 220 L 511 219 L 511 218 L 511 217 L 511 216 L 511 215 L 511 214 L 511 213 L 511 212 L 511 211 L 511 210 L 511 209 L 511 208 L 511 207 L 511 206 L 511 205 L 511 204 L 511 203 L 511 202 L 511 201 L 511 200 L 511 199 L 511 198 L 511 197 L 511 196 L 511 195 L 511 194 L 511 193 L 511 192 L 511 191 L 511 190 L 511 189 L 511 188 L 511 187 L 511 186 L 511 185 L 511 184 L 511 183 L 511 182 L 511 181 L 511 180 L 511 179 L 511 178 L 511 177 L 511 176 L 511 175 L 511 174 L 511 173 L 511 172 L 511 171 L 511 170 L 511 169 L 511 168 L 511 167 L 511 166 L 511 165 L 511 164 L 511 163 L 511 162 L 511 161 L 511 160 L 511 159 L 511 158 L 511 157 L 511 156 L 511 155 L 511 154 L 511 153 L 511 152 L 510 151 L 509 150 L 509 149 L 508 148 L 507 147 L 506 146 L 505 145 L 505 144 L 504 143 L 503 142 L 502 141 L 502 140 L 501 139 L 500 138 L 499 137 L 499 136 L 498 135 L 497 134 L 496 133 L 496 132 L 495 131 L 494 130 L 493 129 L 493 128 L 492 127 L 491 126 L 490 125 L 489 124 L 489 123 L 488 122 L 487 121 L 486 120 L 486 119 L 485 118 L 484 117 L 483 116 L 483 115 L 482 114 L 481 113 L 480 112 L 480 111 L 479 110 L 478 109 L 477 108 L 477 107 L 476 106 L 475 105 L 474 104 L 473 103 L 473 102 L 472 101 L 471 100 L 470 99 L 470 98 L 469 97 L 468 96 L 467 95 L 467 94 L 466 93 L 465 92 L 464 91 L 464 90 L 463 89 L 462 88 L 461 87 L 461 86 L 460 85 L 459 84 L 458 83 L 458 82 L 457 81 L 456 80 L 455 79 L 454 78 L 454 77 L 453 76 L 452 75 L 451 74 L 451 73 L 450 72 L 449 71 L 448 70 L 448 69 L 447 68 L 446 67 L 445 66 L 445 65 L 444 64 L 443 63 L 442 62 L 442 61 L 441 60 L 440 59 L 439 58 L 438 57 L 438 56 L 437 55 L 436 54 L 435 53 L 435 52 L 434 51 L 433 50 L 432 49 L 432 48 L 431 47 L 430 46 L 429 45 L 429 44 L 428 43 L 427 42 L 426 41 L 426 40 L 425 39 L 424 39 L 423 39 L 422 39 L 421 39 L 420 39 L 419 39 L 418 39 L 417 39 L 416 39 L 415 39 L 414 39 L 413 39 L 412 39 L 411 39 L 410 39 L 409 39 L 408 39 L 407 39 L 406 39 L 405 39 L 404 39 L 403 39 L 402 39 L 401 39 L 400 39 L 399 39 L 398 39 L 397 39 L 396 39 L 395 39 L 394 39 L 393 39 L 392 39 L 391 39 L 390 39 L 389 39 L 388 39 L 387 39 L 386 39 L 385 39 L 384 39 L 383 39 L 382 39 L 381 39 L 380 39 L 379 39 L 378 39 L 377 39 L 376 39 L 375 39 L 374 39 L 373 39 L 372 39 L 371 39 L 370 39 L 369 39 L 368 39 L 367 39 L 366 39 L 365 39 L 364 39 L 363 39 L 362 39 L 361 39 L 360 39 L 359 39 L 358 39 L 357 39 L 356 39 L 355 39 L 354 39 L 353 39 L 352 39 L 351 39 L 350 39 L 349 39 L 348 39 L 347 39 L 346 39 L 345 39 L 344 39 L 343 39 L 342 39 L 341 39 L 340 39 L 339 39 L 338 39 L 337 39 L 336 39 L 335 39 L 334 39 L 333 39 L 332 39 L 331 39 L 330 39 L 329 39 L 328 39 L 327 39 L 326 39 L 325 39 L 324 39 L 323 39 L 322 39 L 321 39 L 320 39 L 319 39 L 318 39 L 317 39 L 316 39 L 315 39 L 314 39 L 313 39 L 312 39 L 311 39 L 310 39 L 309 39 L 308 39 L 307 39 L 306 39 L 305 39 L 304 39 L 303 39 L 302 39 L 301 39 L 300 39 L 299 39 L 298 39 L 297 39 L 296 39 L 295 39 L 294 39 L 293 39 L 292 39 L 291 39 L 290 39 L 289 39 L 288 39 L 287 39 L 286 39 L 285 39 L 284 39 L 283 39 L 282 39 L 281 39 L 280 39 L 279 39 L 278 39 L 277 39 L 276 39 L 275 39 L 274 39 L 273 39 L 272 39 L 271 39 L 270 39 L 269 39 L 268 39 L 267 39 L 266 39 L 265 39 L 264 39 L 263 39 L 262 39 L 261 39 L 260 39 L 259 39 L 258 39 L 257 39 L 256 39 L 255 39 L 254 39 L 253 39 L 252 39 L 251 39 L 250 39 L 249 39 L 248 39 L 247 39 L 246 39 L 245 39 L 244 39 L 243 39 L 242 39 L 241 39 L 240 39 L 239 39 L 238 39 L 237 39 L 236 39 L 235 39 L 234 39 L 233 39 L 232 39 Z"/>
  </g>
</svg>